<svg xmlns="http://www.w3.org/2000/svg" xmlns:svg="http://www.w3.org/2000/svg" id="Layer_1" width="163.608" height="144.2" x="0" y="0" version="1.1" viewBox="0 0 163.608 144.2" xml:space="preserve"><metadata id="metadata3918"/><style id="style3856" type="text/css">.st0{fill:#7dc8a2}.st1{fill:#afdbc5}.st2,.st3{fill:#764d80}.st3{stroke:#764d80;stroke-miterlimit:10}</style><g id="Layer_3" transform="translate(-38.19233,-47.9)"><g id="g3910"><g id="g3886"><g id="g3884"><path id="path3858" fill="#7dc8a2" d="M 100.6,48.1 H 59.7 c -0.1,0 -0.2,0 -0.3,0 -11.4,0 -20.6,9.2 -20.6,20.6 v 102.8 c 0,11.4 9.2,20.6 20.6,20.6 11.4,0 20.6,-9.2 20.6,-20.6 v -20.6 h 20.6 c 28.3,0 51.4,-23.1 51.4,-51.4 0,-28.3 -23.1,-51.4 -51.4,-51.4 z" class="st0"/><path id="path3860" fill="#afdbc5" d="M 59.5,186.9 C 51,186.9 44.1,180 44.1,171.5 V 68.6 c 0,-8.5 6.9,-15.4 15.3,-15.4 0.1,0 0.2,0 0.3,0 h 40.9 c 25.5,0 46.3,20.8 46.3,46.3 0,25.5 -20.8,46.3 -46.3,46.3 H 74.9 v 25.7 c 0,8.4 -6.9,15.4 -15.4,15.4 z" class="st1"/><path id="path3862" fill="#7dc8a2" d="m 59.5,181.7 c -5.7,0 -10.3,-4.6 -10.3,-10.3 V 68.6 c 0,-5.6 4.5,-10.2 10.1,-10.3 0.1,0 0.2,0 0.3,0 h 41 c 22.7,0 41.1,18.5 41.1,41.1 0,22.6 -18.5,41.1 -41.1,41.1 H 69.8 v 30.8 c 0,5.8 -4.6,10.4 -10.3,10.4 z" class="st0"/><path id="path3864" fill="#afdbc5" d="m 59.5,176.6 c -2.9,0 -5.2,-2.3 -5.2,-5.2 V 68.6 c 0,-2.8 2.2,-5.1 5,-5.2 h 0.2 41.1 c 19.9,0 36,16.2 36,36 0,19.8 -16.1,36 -36,36 H 64.7 v 36 c 0,2.9 -2.3,5.2 -5.2,5.2 z" class="st1"/><path id="path3866" fill="#7dc8a2" d="m 59.5,130.3 h 41.1 c 17,0 30.9,-13.8 30.9,-30.9 0,-17.1 -13.8,-30.9 -30.9,-30.9 H 59.5 Z" class="st0"/><path id="path3868" fill="#afdbc5" d="M 64.7,125.2 V 73.7 h 36 c 14.2,0 25.7,11.5 25.7,25.7 0,14.2 -11.5,25.7 -25.7,25.7 z" class="st1"/><path id="path3870" fill="#7dc8a2" d="M 69.8,120.1 V 78.9 h 30.8 c 11.4,0 20.6,9.2 20.6,20.6 0,11.4 -9.2,20.6 -20.6,20.6 z" class="st0"/><path id="path3872" fill="#afdbc5" d="M 74.9,115 V 84 h 25.7 c 8.5,0 15.5,6.9 15.5,15.5 0,8.6 -6.9,15.5 -15.5,15.5 z" class="st1"/><path id="path3874" fill="#7dc8a2" d="M 80,109.8 V 89.1 h 20.6 c 5.7,0 10.4,4.6 10.4,10.4 0,5.8 -4.6,10.4 -10.4,10.4 z" class="st0"/><path id="path3876" fill="#afdbc5" d="M 85.2,104.7 V 94.2 h 15.4 c 2.9,0 5.2,2.3 5.2,5.2 0,2.9 -2.3,5.2 -5.2,5.2 z" class="st1"/><g id="g3882"><circle id="ellipse3878" cx="58.8" cy="68.6" r="20.6" fill="#764d80" class="st2" transform="matrix(0.8192,-0.5736,0.5736,0.8192,-28.7245,46.1263)"/><path id="path3880" fill="#764d80" d="m 147.6,159.6 c 6.5,9.3 4.3,22.1 -5,28.6 -9.3,6.5 -22.1,4.3 -28.6,-5 l -30.8,-44 c -6.5,-9.3 -4.3,-22.1 5,-28.6 9.3,-6.5 22.1,-4.3 28.6,5 z" class="st2"/></g></g></g><g id="g3908"><g id="g3896"><path id="path3888" fill="#764d80" d="M 183.6,80.7 H 200 c 0.9,0 1.6,-0.7 1.6,-1.6 0,-0.9 -0.7,-1.6 -1.6,-1.6 h -16.4 c -0.9,0 -1.6,0.7 -1.6,1.6 0,0.9 0.7,1.6 1.6,1.6 z" class="st2"/><path id="path3890" fill="#764d80" d="m 183.6,51.3 h 4.9 v 5 0 l -5.8,4 c -0.7,0.5 -0.9,1.5 -0.4,2.3 0.5,0.7 1.5,0.9 2.3,0.4 l 4.6,-3.2 c 1.1,2.2 3.3,3.6 5.9,3.6 3.6,0 6.6,-3 6.6,-6.6 v -7.2 0 c 0,-0.6 -0.3,-1.1 -0.7,-1.4 -0.3,-0.2 -0.6,-0.3 -0.9,-0.3 v 0 h -9.8 -6.5 c -0.9,0 -1.6,0.7 -1.6,1.6 -0.2,1.1 0.5,1.8 1.4,1.8 z m 14.7,5.6 c 0,1.8 -1.5,3.3 -3.3,3.3 -1.8,0 -3.3,-1.5 -3.3,-3.3 v -5.6 h 6.5 z" class="st2"/><path id="path3892" fill="#764d80" d="m 200,123.7 c -0.9,0 -1.6,0.7 -1.6,1.6 v 4.9 h -14.7 c -0.9,0 -1.6,0.7 -1.6,1.6 v 0 c 0,0.9 0.7,1.6 1.6,1.6 h 14.7 v 5 c 0,0.9 0.7,1.6 1.6,1.6 0.9,0 1.6,-0.7 1.6,-1.6 v -6.6 0 -6.5 c 0,-0.9 -0.7,-1.6 -1.6,-1.6 z" class="st2"/><path id="path3894" fill="#764d80" d="m 191.8,94.5 c -5.5,0 -10,4.5 -10,10 0,5.5 4.5,10 10,10 5.5,0 10,-4.5 10,-10 0,-5.5 -4.5,-10 -10,-10 z m 0,16.7 c -3.7,0 -6.7,-3 -6.7,-6.7 0,-3.7 3,-6.7 6.7,-6.7 3.7,0 6.7,3 6.7,6.7 0,3.7 -3,6.7 -6.7,6.7 z" class="st2"/></g><g id="g3902"><path id="path3898" fill="#764d80" d="m 201.1,157 c -0.3,-0.3 -0.6,-0.4 -1.1,-0.4 h -16.5 c -0.4,0 -0.7,0.1 -1.1,0.4 -0.3,0.3 -0.4,0.6 -0.4,1.1 0,0.4 0.1,0.7 0.4,1.1 0.3,0.4 0.6,0.4 1.1,0.4 H 200 c 0.3,0 0.7,-0.1 1.1,-0.4 0.3,-0.3 0.4,-0.6 0.4,-1.1 0,-0.4 -0.1,-0.8 -0.4,-1.1 z" class="st2"/><path id="path3900" fill="#764d80" d="m 201.5,175.3 v -0.2 c 0,-0.4 -0.1,-0.8 -0.4,-1.1 -0.3,-0.3 -0.6,-0.4 -1.1,-0.4 h -16.5 c -0.3,0 -0.7,0 -1.1,0.3 -0.3,0.3 -0.4,0.6 -0.4,1.1 0,0.5 0.1,0.7 0.4,1.1 0.3,0.4 0.6,0.4 1.1,0.4 h 12.1 l -7.3,4.9 c -0.4,0.4 -0.6,0.8 -0.6,1.3 0,0.5 0.3,1 0.7,1.3 l 7.3,5 h -12.1 c -0.3,0 -0.7,0.1 -1.1,0.4 -0.3,0.3 -0.4,0.6 -0.4,1.1 0,0.5 0.1,0.7 0.4,1.1 0.3,0.4 0.6,0.4 1.1,0.4 H 200 c 0.4,0 0.7,-0.1 1.1,-0.4 0.4,-0.3 0.4,-0.6 0.4,-1.1 v -0.2 c 0,-0.5 -0.1,-1.1 -0.7,-1.4 l -9.2,-6.1 9.2,-6.1 c 0.4,-0.3 0.7,-0.8 0.7,-1.4 z" class="st2"/></g><g id="g3906"><path id="path3904" fill="#764d80" stroke="#764d80" stroke-miterlimit="10" d="m 190.7,146.1 c 0.3,0 0.6,0.1 0.9,0.4 0.2,0.2 0.4,0.5 0.4,0.9 0,0.3 -0.1,0.6 -0.4,0.9 -0.2,0.2 -0.5,0.4 -0.9,0.4 h -0.5 c -0.3,0 -0.6,-0.1 -0.9,-0.4 -0.2,-0.2 -0.4,-0.5 -0.4,-0.9 0,-0.4 0.1,-0.7 0.4,-0.9 0.2,-0.2 0.5,-0.4 0.9,-0.4 z" class="st3"/></g></g></g></g></svg>