<svg xmlns="http://www.w3.org/2000/svg" xmlns:svg="http://www.w3.org/2000/svg" id="Layer_1" width="163.9" height="144.3" x="0" y="0" version="1.1" viewBox="0 0 163.9 144.3" xml:space="preserve"><metadata id="metadata68"/><style id="style2" type="text/css">.st0{fill:#fac79e}.st1{fill:#e45e5d}.st2{fill:#f8a05f}</style><g id="Layer_3" transform="translate(-37.9,-47.9)"><g id="g26"><g id="g24"><g id="g12"><path id="path4" fill="#fac79e" d="M 183.6,80.7 H 200 c 0.9,0 1.6,-0.7 1.6,-1.6 0,-0.9 -0.7,-1.6 -1.6,-1.6 h -16.4 c -0.9,0 -1.6,0.7 -1.6,1.6 0,0.9 0.7,1.6 1.6,1.6 z" class="st0"/><path id="path6" fill="#fac79e" d="m 183.6,51.3 h 4.9 v 5 0 l -5.8,4 c -0.7,0.5 -0.9,1.5 -0.4,2.3 0.5,0.7 1.5,0.9 2.3,0.4 l 4.6,-3.2 c 1.1,2.2 3.3,3.6 5.9,3.6 3.6,0 6.6,-3 6.6,-6.6 v -7.2 0 c 0,-0.6 -0.3,-1.1 -0.7,-1.4 -0.3,-0.2 -0.6,-0.3 -0.9,-0.3 v 0 h -9.8 -6.5 c -0.9,0 -1.6,0.7 -1.6,1.6 -0.2,1.1 0.5,1.8 1.4,1.8 z m 14.7,5.6 c 0,1.8 -1.5,3.3 -3.3,3.3 -1.8,0 -3.3,-1.5 -3.3,-3.3 v -5.6 h 6.5 z" class="st0"/><path id="path8" fill="#fac79e" d="m 200,123.7 c -0.9,0 -1.6,0.7 -1.6,1.6 v 4.9 h -14.7 c -0.9,0 -1.6,0.7 -1.6,1.6 v 0 c 0,0.9 0.7,1.6 1.6,1.6 h 14.7 v 5 c 0,0.9 0.7,1.6 1.6,1.6 0.9,0 1.6,-0.7 1.6,-1.6 v -6.6 0 -6.5 c 0,-0.9 -0.7,-1.6 -1.6,-1.6 z" class="st0"/><path id="path10" fill="#fac79e" d="m 191.8,94.5 c -5.5,0 -10,4.5 -10,10 0,5.5 4.5,10 10,10 5.5,0 10,-4.5 10,-10 0,-5.5 -4.5,-10 -10,-10 z m 0,16.7 c -3.7,0 -6.7,-3 -6.7,-6.7 0,-3.7 3,-6.7 6.7,-6.7 3.7,0 6.7,3 6.7,6.7 0,3.7 -3,6.7 -6.7,6.7 z" class="st0"/></g><g id="g18"><path id="path14" fill="#fac79e" d="m 201.1,157 c -0.3,-0.3 -0.6,-0.4 -1.1,-0.4 h -16.5 c -0.4,0 -0.7,0.1 -1.1,0.4 -0.3,0.3 -0.4,0.6 -0.4,1.1 0,0.4 0.1,0.7 0.4,1.1 0.3,0.4 0.6,0.4 1.1,0.4 H 200 c 0.3,0 0.7,-0.1 1.1,-0.4 0.3,-0.3 0.4,-0.6 0.4,-1.1 0,-0.4 -0.1,-0.8 -0.4,-1.1 z" class="st0"/><path id="path16" fill="#fac79e" d="m 201.5,175.3 v -0.2 c 0,-0.4 -0.1,-0.8 -0.4,-1.1 -0.3,-0.3 -0.6,-0.4 -1.1,-0.4 h -16.5 c -0.3,0 -0.7,0 -1.1,0.3 -0.3,0.3 -0.4,0.6 -0.4,1.1 0,0.5 0.1,0.7 0.4,1.1 0.3,0.4 0.6,0.4 1.1,0.4 h 12.1 l -7.3,4.9 c -0.4,0.4 -0.6,0.8 -0.6,1.3 0,0.5 0.3,1 0.7,1.3 l 7.3,5 h -12.1 c -0.3,0 -0.7,0.1 -1.1,0.4 -0.3,0.3 -0.4,0.6 -0.4,1.1 0,0.5 0.1,0.7 0.4,1.1 0.3,0.4 0.6,0.4 1.1,0.4 H 200 c 0.4,0 0.7,-0.1 1.1,-0.4 0.4,-0.3 0.4,-0.6 0.4,-1.1 v -0.2 c 0,-0.5 -0.1,-1.1 -0.7,-1.4 l -9.2,-6.1 9.2,-6.1 c 0.4,-0.3 0.7,-0.8 0.7,-1.4 z" class="st0"/></g><g id="g22"><path id="path20" fill="#fac79e" d="m 190.7,146.1 c 0.3,0 0.6,0.1 0.9,0.4 0.2,0.2 0.4,0.5 0.4,0.9 0,0.3 -0.1,0.6 -0.4,0.9 -0.2,0.2 -0.5,0.4 -0.9,0.4 h -0.5 c -0.3,0 -0.6,-0.1 -0.9,-0.4 -0.2,-0.2 -0.4,-0.5 -0.4,-0.9 0,-0.4 0.1,-0.7 0.4,-0.9 0.2,-0.2 0.5,-0.4 0.9,-0.4 z" class="st0"/></g></g></g></g><g id="g61" transform="translate(-37.9,-47.9)"><path id="path29" fill="#e45e5d" d="M 99.6,48.2 H 58.5 c -11.4,0 -20.6,9.2 -20.6,20.6 0,0 0,0 0,0 v 102.8 c 0,11.4 9.2,20.6 20.6,20.6 11.4,0 20.6,-9.2 20.6,-20.6 V 151 h 20.6 c 28.4,0 51.4,-23 51.4,-51.4 0,-28.4 -23.1,-51.4 -51.5,-51.4 z" class="st1"/><polygon id="polygon31" fill="#f8a05f" points="37.9 96.3 37.9 104.3 85 48.2 78.3 48.2" class="st2"/><polygon id="polygon33" fill="#f8a05f" points="37.9 112.3 37.9 120.2 98.4 48.2 91.7 48.2" class="st2"/><path id="path35" fill="#f8a05f" d="m 110.8,49.5 c -1.9,-0.4 -3.9,-0.8 -5.9,-1 L 38,128.3 v 8 z" class="st2"/><polygon id="polygon37" fill="#f8a05f" points="37.9 80.3 37.9 88.3 71.6 48.2 64.8 48.2" class="st2"/><path id="path39" fill="#f8a05f" d="m 121.2,53 c -1.6,-0.8 -3.3,-1.4 -5,-2 l -78.3,93.2 v 8 z" class="st2"/><path id="path41" fill="#f8a05f" d="m 79.1,151 h 0.2 L 144,73.8 c -0.9,-1.5 -1.9,-3 -2.9,-4.5 L 43.5,185.6 c 1.2,1.3 2.5,2.4 4,3.3 l 31.6,-37.7 z" class="st2"/><path id="path43" fill="#f8a05f" d="M 150.2,90.4 99.4,151 h 0.2 c 2.3,0 4.6,-0.2 6.9,-0.5 l 44.5,-53 c -0.2,-2.4 -0.4,-4.7 -0.8,-7.1 z" class="st2"/><path id="path45" fill="#f8a05f" d="m 78.7,175.7 -12.6,15 c 6.4,-2.6 11.2,-8.2 12.6,-15 z" class="st2"/><path id="path47" fill="#f8a05f" d="m 147.9,117.1 c 1.3,-3.6 2.2,-7.4 2.7,-11.2 l -35.9,42.8 c 3.7,-1.1 7.3,-2.7 10.6,-4.6 z" class="st2"/><path id="path49" fill="#f8a05f" d="m 130.2,58.3 c -1.4,-1 -2.8,-2 -4.3,-2.9 l -88,104.8 v 8 z" class="st2"/><path id="path51" fill="#f8a05f" d="m 137.8,65.2 c -1.2,-1.3 -2.4,-2.5 -3.6,-3.7 L 38.4,175.7 c 0.4,1.9 1.1,3.8 2,5.6 z" class="st2"/><path id="path53" fill="#f8a05f" d="m 79.1,167.2 v -8 l -26.8,32 c 1.9,0.6 3.9,1 5.9,1 z" class="st2"/><path id="path55" fill="#f8a05f" d="m 148.7,84.2 c -0.6,-1.9 -1.3,-3.7 -2.1,-5.5 L 85.9,151 h 6.7 z" class="st2"/><circle id="ellipse57" cx="58.5" cy="68.8" r="20.6" fill="#fac79e" class="st0" transform="matrix(0.8192,-0.5736,0.5736,0.8192,-28.8644,46.014)"/><path id="path59" fill="#fac79e" d="m 147.3,159.8 c 6.5,9.3 4.3,22.1 -5.1,28.6 -9.4,6.5 -22.1,4.3 -28.6,-5.1 l -30.8,-44 c -6.5,-9.3 -4.2,-22.1 5.1,-28.6 9.3,-6.5 22.1,-4.2 28.6,5.1 z" class="st0"/></g></svg>