<svg xmlns="http://www.w3.org/2000/svg" xmlns:xlink="http://www.w3.org/1999/xlink" width="15" height="12" version="1.1" viewBox="0 0 15 12"><title>CCDDE6F6-B552-48FD-AD54-6939841CA2DD</title><desc>Created with sketchtool.</desc><g id="Typing-Indicator" fill="none" fill-rule="evenodd" stroke="none" stroke-width="1"><g id="typing-indicator" fill="#E9BF37" transform="translate(-299.000000, -294.000000)"><path id="unverified_icon" d="M313.568455,304.982113 L306.898576,294.310305 C306.776309,294.117108 306.563606,294 306.334971,294 C306.106335,294 305.893632,294.117108 305.771366,294.310305 L299.101486,304.982113 C298.971497,305.189962 298.966004,305.452367 299.087182,305.665474 C299.20836,305.87858 299.436676,306.008036 299.681766,306.002604 L313.021525,306.002604 C313.260642,305.995965 313.477893,305.861783 313.590891,305.650946 C313.703889,305.440108 313.695328,305.184904 313.568455,304.982113 L313.568455,304.982113 Z M307.018633,304.00164 L305.684657,304.00164 L305.684657,302.667664 L307.018633,302.667664 L307.018633,304.00164 Z M307.018633,301.333689 L305.684657,301.333689 L305.684657,297.998749 L307.018633,297.998749 L307.018633,301.333689 Z"/></g></g></svg>