<svg xmlns="http://www.w3.org/2000/svg" xmlns:xlink="http://www.w3.org/1999/xlink" width="100%" height="100%" fill-rule="evenodd" stroke-linejoin="round" stroke-miterlimit="1.414" clip-rule="evenodd" version="1.1" viewBox="0 0 25 25" xml:space="preserve"><path fill="#fff" d="M7.831,13.382c0.504,0 0.826,-0.378 0.826,-0.882c0,-0.518 -0.322,-0.882 -0.826,-0.882c-0.49,0 -0.826,0.364 -0.826,0.882c-0.014,0.504 0.336,0.882 0.826,0.882ZM12.493,13.382c0.504,0 0.84,-0.378 0.84,-0.882c-0.014,-0.518 -0.336,-0.882 -0.826,-0.882c-0.49,0 -0.84,0.364 -0.84,0.882c-0.014,0.504 0.336,0.882 0.826,0.882ZM17.155,13.382c0.518,0 0.84,-0.378 0.84,-0.882c0,-0.518 -0.336,-0.882 -0.826,-0.882c-0.49,0 -0.84,0.364 -0.84,0.882c0,0.504 0.336,0.882 0.826,0.882Z"/></svg>