<svg xmlns="http://www.w3.org/2000/svg" xmlns:xlink="http://www.w3.org/1999/xlink" width="35" height="35" x="0" y="0" enable-background="new 0 0 35 35" version="1.1" viewBox="0 0 35 35" xml:space="preserve"><g id="Layer_1"><path id="Oval-109-Copy" fill="#76CFA6" d="M17.5,35C27.165,35,35,27.165,35,17.5S27.165,0,17.5,0 S0,7.835,0,17.5S7.835,35,17.5,35z" enable-background="new"/><g id="Icon"><g><path fill="none" stroke="#FFF" d="M7.5,12.5h5v-5h-5V12.5z M15,27.5h5v-5h-5V27.5z M7.5,27.5h5v-5h-5V27.5z M7.5,20h5v-5h-5 V20z M15,20h5v-5h-5V20z M22.5,7.5v5h5v-5H22.5z M15,12.5h5v-5h-5V12.5z M22.5,20h5v-5h-5V20z M22.5,27.5h5v-5h-5V27.5z"/></g></g></g><g id="Layer_2"><g id="Icon_1_" opacity=".15"><g><path fill="none" stroke="#76CFA6" d="M7.5,12.5h5v-5h-5V12.5z M15,27.5h5v-5h-5V27.5z M7.5,27.5h5v-5h-5V27.5z M7.5,20h5v-5h-5 V20z M15,20h5v-5h-5V20z M22.5,7.5v5h5v-5H22.5z M15,12.5h5v-5h-5V12.5z M22.5,20h5v-5h-5V20z M22.5,27.5h5v-5h-5V27.5z"/></g></g></g></svg>