<svg xmlns="http://www.w3.org/2000/svg" xmlns:xlink="http://www.w3.org/1999/xlink" id="Layer_1" x="0" y="0" enable-background="new 0 0 35 35" version="1.1" viewBox="0 0 35 35" xml:space="preserve"><style type="text/css">.st0{opacity:.15}.st2,.st3{fill:none;stroke-miterlimit:10}.st2{stroke-width:1;stroke-linecap:round}.st3{stroke-linejoin:round}</style><g id="Layer_1_1_" class="st0"><path id="Oval-109-Copy" fill="#76CFA6" d="M17.5,35C27.2,35,35,27.2,35,17.5S27.2,0,17.5,0S0,7.8,0,17.5S7.8,35,17.5,35z"/></g><g id="frame"><g id="Layer_3"><g><g><line x1="17.5" x2="17.5" y1="23.9" y2="18.9" stroke="#76CFA6" class="st2"/><g><polygon fill="#76CFA6" points="19.5 23.1 17.5 26.6 15.5 23.1"/></g></g></g></g><rect width="21.6" height="21.6" x="6.7" y="6.7" stroke="#76CFA6" class="st3"/><line x1="6.7" x2="28.2" y1="16.7" y2="16.7" stroke="#76CFA6" class="st3"/><path fill="#76CFA6" d="M13.3,13.3v-3.1c0-0.1-0.1-0.3-0.3-0.3H9.9c-0.1,0-0.3,0.1-0.3,0.3v3.1c0,0.1,0.1,0.3,0.3,0.3H13 C13.2,13.5,13.3,13.4,13.3,13.3z"/><path fill="#76CFA6" d="M19.3,13.3v-3.1c0-0.1-0.1-0.3-0.3-0.3h-3.1c-0.1,0-0.3,0.1-0.3,0.3v3.1c0,0.1,0.1,0.3,0.3,0.3H19 C19.2,13.5,19.3,13.4,19.3,13.3z"/><path fill="#76CFA6" d="M25.3,13.3v-3.1c0-0.1-0.1-0.3-0.3-0.3h-3.1c-0.1,0-0.3,0.1-0.3,0.3v3.1c0,0.1,0.1,0.3,0.3,0.3H25 C25.2,13.5,25.3,13.4,25.3,13.3z"/></g></svg>