<svg xmlns="http://www.w3.org/2000/svg" xmlns:xlink="http://www.w3.org/1999/xlink" width="25" height="25" version="1.1" viewBox="0 0 25 25"><title>5E723325-BD0B-454D-BE25-638AF09A97AC</title><desc>Created with sketchtool.</desc><g id="Symbols" fill="none" fill-rule="evenodd" stroke="none" stroke-width="1"><g id="Right-panel/Header" transform="translate(-100.000000, -23.000000)"><g id="icons_notifications" transform="translate(100.000000, 23.000000)"><path id="Oval-1-Copy-7" fill="#76CFA6" d="M12.5,25 C19.4035594,25 25,19.4035594 25,12.5 C25,5.59644063 19.4035594,0 12.5,0 C5.59644063,0 0,5.59644063 0,12.5 C0,19.4035594 5.59644063,25 12.5,25 Z"/><g id="Group-8" opacity=".8" transform="translate(7.000000, 4.000000)"><path id="Oval-49" stroke="#FFF" d="M5.41666667,16.7222222 C6.38316498,16.7222222 7.16666667,15.9387205 7.16666667,14.9722222 C7.16666667,14.0057239 6.38316498,13.2222222 5.41666667,13.2222222 C4.45016835,13.2222222 3.66666667,14.0057239 3.66666667,14.9722222 C3.66666667,15.9387205 4.45016835,16.7222222 5.41666667,16.7222222 Z"/><path id="Rectangle-15" fill="#FFF" d="M1,12.4488669 C1,12.4468729 10.0044225,12.4444444 10.0044225,12.4444444 C10.0024284,12.4444444 10,7.94444444 10,7.94444444 C10,5.46303559 7.98297457,3.44444444 5.5,3.44444444 C3.01859115,3.44444444 1,5.46146988 1,7.94444444 L1,12.4488669 Z M5.5,2.44444444 C8.53756612,2.44444444 11,4.91305916 11,7.94444444 L11,12.4488669 C11,12.9987092 10.555163,13.4444444 10.0044225,13.4444444 L0.995577499,13.4444444 C0.445735229,13.4444444 0,12.9996075 0,12.4488669 L0,7.94444444 C0,4.90687832 2.46861471,2.44444444 5.5,2.44444444 Z"/><path id="Line" stroke="#FFF" stroke-linecap="round" d="M4.27777778,1.83333333 L6.72222222,1.83333333"/></g></g></g></g></svg>