<svg xmlns="http://www.w3.org/2000/svg" xmlns:xlink="http://www.w3.org/1999/xlink" width="35" height="35" version="1.1" viewBox="0 0 35 35"><title>206C270A-EB00-48E4-8CC3-5D403C59177C</title><desc>Created with sketchtool.</desc><g id="1:1-chat" fill="none" fill-rule="evenodd" stroke="none" stroke-width="1"><g id="Chat-People-2-Invite-modal-(similar-to-chat-group-5)" transform="translate(-909.000000, -263.000000)"><g id="icons_close" transform="translate(909.000000, 263.000000)"><path id="Oval-1-Copy-7" fill="#76CFA6" d="M17.5,35 C27.1649831,35 35,27.1649831 35,17.5 C35,7.83501688 27.1649831,0 17.5,0 C7.83501688,0 0,7.83501688 0,17.5 C0,27.1649831 7.83501688,35 17.5,35 Z" opacity=".15"/><polyline id="icon_close" fill="#76CFA6" points="18.212 5.971 16.675 5.971 16.675 16.728 5.969 16.728 5.969 18.264 16.675 18.264 16.675 28.971 18.212 28.971 18.212 18.264 28.969 18.264 28.969 16.728 18.212 16.728 18.212 5.971" opacity=".9" transform="translate(17.468897, 17.470577) rotate(-315.000000) translate(-17.468897, -17.470577)"/></g></g></g></svg>