<svg xmlns="http://www.w3.org/2000/svg" xmlns:svg="http://www.w3.org/2000/svg" id="svg2" width="24" height="24" version="1.1" viewBox="0 0 24 24"><metadata id="metadata18"/><title id="title4">icon_newmessages</title><desc id="desc6">Created with Sketch.</desc><g id="02-Chat" fill="none" stroke="none" transform="matrix(1,0,0,-1,0,24)"><g id="02_7-Chat-new-messages" transform="translate(-809,-325)"><g id="icon_newmessages" transform="translate(809,325)"><circle id="Oval-1909" cx="12" cy="12" r="12" fill="#454545" fill-opacity=".5" d="M 24,12 C 24,18.627417 18.627417,24 12,24 5.372583,24 0,18.627417 0,12 0,5.372583 5.372583,0 12,0 18.627417,0 24,5.372583 24,12 z"/><path id="path14" fill="#fff" d="m 16.340043,11.526774 c 0.146962,0 0.293924,-0.05588 0.406442,-0.168394 0.223505,-0.224271 0.223505,-0.587084 0,-0.811354 L 12.36594,6.1680115 C 12.142435,5.943741 11.778856,5.9445065 11.554586,6.167246 l -4.3859037,4.372891 c -0.2242704,0.224271 -0.2250358,0.587849 -0.00153,0.812119 0.223505,0.225036 0.5870834,0.225036 0.8113538,0.0015 l 3.4130447,-3.4030933 0.0015,9.4752353 c 0,0.316887 0.25795,0.574071 0.574072,0.574071 0.317652,0 0.574071,-0.257184 0.574071,-0.574071 l -0.0015,-9.4606922 3.394674,3.3931432 c 0.111752,0.112518 0.258714,0.168394 0.405677,0.168394 l 0,0 z" transform="matrix(-1,0,0,-1,23.914114,24)"/></g></g></g></svg>